<?xml version="1.0" encoding="UTF-8"?>
<svg version="1.1" xmlns="http://www.w3.org/2000/svg" width="107" height="98">
<path d="M0 0 C35.31 0 70.62 0 107 0 C107 32.34 107 64.68 107 98 C71.69 98 36.38 98 0 98 C0 65.66 0 33.32 0 0 Z " fill="#D7E3EC" transform="translate(0,0)"/>
<path d="M0 0 C35.31 0 70.62 0 107 0 C107 32.34 107 64.68 107 98 C92.15 98 77.3 98 62 98 C62 97.34 62 96.68 62 96 C65.46153846 93 65.46153846 93 68 93 C68.33 87.06 68.66 81.12 69 75 C69.33 76.32 69.66 77.64 70 79 C70.5775 79.0825 71.155 79.165 71.75 79.25 C74 80 74 80 75.75 82.0625 C78.2680635 84.23083246 78.87844057 84.2892162 82.0625 84.3125 C85.90086312 84.16647907 85.90086312 84.16647907 89 83 C91.24714408 80.04323147 91.41040492 76.88211797 91.328125 73.234375 C90.73446511 69.19183386 89.09391249 65.4924015 87 62 C86.34 61.67 85.68 61.34 85 61 C85 60.34 85 59.68 85 59 C85.67546875 58.95101562 86.3509375 58.90203125 87.046875 58.8515625 C87.93890625 58.77679688 88.8309375 58.70203125 89.75 58.625 C90.63171875 58.55539063 91.5134375 58.48578125 92.421875 58.4140625 C95.07946534 57.98723738 96.80638049 57.56332612 99 56 C100.31609274 52.15005053 100.2281882 48.140941 99.4375 44.1875 C96.00883311 38.96996343 90.75945824 37.38226998 85 36 C85.33 34.68 85.66 33.36 86 32 C86.66 32 87.32 32 88 32 C88.42101235 23.2687673 88.42101235 23.2687673 86 15 C85.01 14.34 84.02 13.68 83 13 C83 12.34 83 11.68 83 11 C81.20759337 11.11389875 79.41605165 11.24147687 77.625 11.375 C76.62726563 11.44460938 75.62953125 11.51421875 74.6015625 11.5859375 C71.84491121 11.76363964 71.84491121 11.76363964 70 14 C69.01 14 68.02 14 67 14 C67 14.99 67 15.98 67 17 C65.68 17 64.36 17 63 17 C62.87625 15.7625 62.7525 14.525 62.625 13.25 C62.24253695 10.1237803 61.69450477 7.71120763 60 5 C58.35 5 56.7 5 55 5 C55 4.34 55 3.68 55 3 C52.69 3 50.38 3 48 3 C47.731875 3.61875 47.46375 4.2375 47.1875 4.875 C46 7 46 7 43 9 C40.3100834 12.76588324 39.13717565 16.53877245 38 21 C37.01 20.67 36.02 20.34 35 20 C35 19.34 35 18.68 35 18 C32.55883375 18.03302931 30.12681489 18.10014162 27.6875 18.1875 C26.65206055 18.19620117 26.65206055 18.19620117 25.59570312 18.20507812 C23.2983674 18.25390458 23.2983674 18.25390458 20 19 C17.3395974 22.06766105 16.61051565 24.55232508 16.75 28.5625 C16.76546875 29.30628906 16.7809375 30.05007812 16.796875 30.81640625 C16.99981412 32.99800181 17.29168388 34.92499699 18 37 C18.66 37.33 19.32 37.66 20 38 C20 39.32 20 40.64 20 42 C19.38511719 42.03738281 18.77023438 42.07476562 18.13671875 42.11328125 C16.92435547 42.21189453 16.92435547 42.21189453 15.6875 42.3125 C14.88699219 42.37050781 14.08648437 42.42851563 13.26171875 42.48828125 C10.51965181 43.10867981 9.65991051 43.7472643 8 46 C7.00011074 48.49018012 7.00011074 48.49018012 6.3125 51.1875 C6.06113281 52.08855469 5.80976562 52.98960938 5.55078125 53.91796875 C5.36902344 54.60503906 5.18726563 55.29210938 5 56 C5.66 56 6.32 56 7 56 C7.103125 56.94875 7.20625 57.8975 7.3125 58.875 C7.68539295 62.29107501 7.68539295 62.29107501 11 64 C11 64.66 11 65.32 11 66 C12.98 66 14.96 66 17 66 C17 66.66 17 67.32 17 68 C18.98 68.33 20.96 68.66 23 69 C21.515 69.495 21.515 69.495 20 70 C20.06023494 72.08412907 20.14908321 74.16744435 20.25 76.25 C20.29640625 77.41015625 20.3428125 78.5703125 20.390625 79.765625 C21.09478961 83.5031141 22.05849722 84.67776096 25 87 C29.28639 89.143195 34.31922588 88.15624324 38.8125 87.125 C42.09791667 86.1125 42.09791667 86.1125 45 84 C45 87.3 45 90.6 45 94 C45.66 94 46.32 94 47 94 C47.33 94.66 47.66 95.32 48 96 C48.99 96.66 49.98 97.32 51 98 C34.17 98 17.34 98 0 98 C0 65.66 0 33.32 0 0 Z " fill="#FDFEFE" transform="translate(0,0)"/>
<path d="M0 0 C2.75 1.375 2.75 1.375 5 3 C5.99 3.66 6.98 4.32 8 5 C8.29296875 7.6015625 8.29296875 7.6015625 8.1875 10.625 C8.14689453 12.12933594 8.14689453 12.12933594 8.10546875 13.6640625 C8.07066406 14.43492188 8.03585938 15.20578125 8 16 C9.48030272 15.18957164 10.95921142 14.37659652 12.4375 13.5625 C13.26121094 13.11003906 14.08492187 12.65757813 14.93359375 12.19140625 C16.92308798 11.16337603 16.92308798 11.16337603 18 10 C20.01964199 9.92755947 22.04167124 9.91622812 24.0625 9.9375 C25.16722656 9.94652344 26.27195312 9.95554687 27.41015625 9.96484375 C28.26480469 9.97644531 29.11945313 9.98804688 30 10 C31.55937507 13.47287117 32.29484706 16.25535032 32.3125 20.0625 C32.32925781 20.89910156 32.34601563 21.73570313 32.36328125 22.59765625 C31.89464656 25.69669211 31.3803605 26.92481392 29 29 C26.22665344 29.37898486 23.77294094 29.56003297 21 29.5625 C15.78041593 29.33893118 15.78041593 29.33893118 11.26171875 31.453125 C10.84535156 31.96359375 10.42898437 32.4740625 10 33 C7.36559819 33.94193717 4.7470152 34.41457053 2 35 C1.72963916 29.72796354 2.73694665 25.07476794 4 20 C2.35 20.66 0.7 21.32 -1 22 C-1.33 27.94 -1.66 33.88 -2 40 C-3.65 40 -5.3 40 -7 40 C-7 44.62 -7 49.24 -7 54 C-7.99 54.33 -8.98 54.66 -10 55 C-10.495 55.99 -10.495 55.99 -11 57 C-18.94089754 61.5118736 -27.01454819 61.75976199 -36 61 C-39.96938216 59.75180382 -43.03182694 57.96817306 -46 55 C-46.55998192 51.28643571 -46.52775569 47.71627968 -46 44 C-43.45175653 40.75678104 -41.50465323 40.16821774 -37.625 38.875 C-32.55862896 39.04970245 -30.38967476 41.44547783 -27 45 C-26.67 44.01 -26.34 43.02 -26 42 C-25.34 42 -24.68 42 -24 42 C-24 42.66 -24 43.32 -24 44 C-22.515 43.505 -22.515 43.505 -21 43 C-21.61488281 42.60167969 -22.22976562 42.20335937 -22.86328125 41.79296875 C-23.67152344 41.26316406 -24.47976562 40.73335937 -25.3125 40.1875 C-26.11300781 39.66542969 -26.91351562 39.14335938 -27.73828125 38.60546875 C-29.72854324 37.1926921 -31.29610256 35.72873559 -33 34 C-33.70125 33.690625 -34.4025 33.38125 -35.125 33.0625 C-37 32 -37 32 -37.6015625 30.2109375 C-38.50101191 25.21987507 -38.77899211 20.62572266 -36.5625 16 C-35 14 -35 14 -34 13 C-31.46950598 12.92686433 -28.96695163 12.90752473 -26.4375 12.9375 C-25.72658203 12.94201172 -25.01566406 12.94652344 -24.28320312 12.95117188 C-22.52209987 12.96299136 -20.76103964 12.98092737 -19 13 C-19 13.66 -19 14.32 -19 15 C-18.34 15 -17.68 15 -17 15 C-16.7525 14.13375 -16.505 13.2675 -16.25 12.375 C-13.13544374 3.9656981 -9.31597826 -0.98062929 0 0 Z " fill="#D5E2EB" transform="translate(54,5)"/>
<path d="M0 0 C5.92883813 -0.89491896 8.78225111 0.128847 13.6875 3.625 C18.55785472 7.44157478 22.99454977 10.98364932 25 17 C25.11766176 18.66368258 25.17509083 20.33220803 25.1875 22 C25.20167969 22.86625 25.21585937 23.7325 25.23046875 24.625 C25 27 25 27 23 30 C20.3984375 30.29296875 20.3984375 30.29296875 17.375 30.1875 C15.87066406 30.14689453 15.87066406 30.14689453 14.3359375 30.10546875 C13.56507812 30.07066406 12.79421875 30.03585938 12 30 C12 29.34 12 28.68 12 28 C9.69 27.34 7.38 26.68 5 26 C4.90912109 27.13888672 4.90912109 27.13888672 4.81640625 28.30078125 C4.73261719 29.29464844 4.64882812 30.28851563 4.5625 31.3125 C4.48128906 32.29863281 4.40007812 33.28476563 4.31640625 34.30078125 C3.92691345 37.62349139 3.62996295 39.45132259 1.0625 41.6875 C-1 43 -1 43 -3 43 C-3 43.66 -3 44.32 -3 45 C-4.74965358 45.05429959 -6.49979787 45.09292823 -8.25 45.125 C-9.22453125 45.14820313 -10.1990625 45.17140625 -11.203125 45.1953125 C-14.0196498 44.99862781 -15.60949036 44.44568916 -18 43 C-18 42.34 -18 41.68 -18 41 C-18.66 41 -19.32 41 -20 41 C-20.33 38.03 -20.66 35.06 -21 32 C-21.99 32.99 -22.98 33.98 -24 35 C-26.6875 35.6875 -26.6875 35.6875 -30 36 C-30.96873047 36.09667969 -30.96873047 36.09667969 -31.95703125 36.1953125 C-37.11903484 36.49141213 -39.90890722 35.39261353 -44 32 C-45.73044016 28.53911967 -45.61689275 24.7751154 -45 21 C-42.625 18.4375 -42.625 18.4375 -40 17 C-39.34 17 -38.68 17 -38 17 C-38 16.01 -38 15.02 -38 14 C-37.20335937 14.01160156 -36.40671875 14.02320312 -35.5859375 14.03515625 C-27.72265904 14.22825762 -27.72265904 14.22825762 -20 13 C-19.67 12.34 -19.34 11.68 -19 11 C-18.34 11 -17.68 11 -17 11 C-16.67 9.68 -16.34 8.36 -16 7 C-14.68 7 -13.36 7 -12 7 C-11.60674181 13.97669157 -12.36903961 19.51656189 -15 26 C-11.9890638 23.9927092 -11.36983503 23.16115776 -10 20 C-9.01 20 -8.02 20 -7 20 C-7 15.71 -7 11.42 -7 7 C-2 8 -2 8 -0.19921875 10.06640625 C0.29964844 10.89011719 0.79851562 11.71382812 1.3125 12.5625 C2.08013672 13.80193359 2.08013672 13.80193359 2.86328125 15.06640625 C3.23839844 15.70449219 3.61351562 16.34257813 4 17 C4.40411824 10.40558118 4.40411824 10.40558118 1 5 C0.3125 2.25 0.3125 2.25 0 0 Z " fill="#AAC4D9" transform="translate(65,53)"/>
<path d="M0 0 C2.78967251 1.16639487 4.0786415 2.99018176 6.02734375 5.28515625 C11.14738374 10.89493919 15.83662109 11.15105002 23.0625 11.7265625 C24.04089844 11.76652344 25.01929688 11.80648437 26.02734375 11.84765625 C26.02734375 14.84765625 26.02734375 14.84765625 24.90234375 16.34765625 C17.09419004 22.59417922 7.59819504 22.65691651 -1.97265625 21.84765625 C-5.94203841 20.59946007 -9.00448319 18.81582931 -11.97265625 15.84765625 C-12.53221484 12.1368993 -12.52707794 8.55843907 -11.97265625 4.84765625 C-8.49497265 1.00390069 -5.22421141 -0.75852558 0 0 Z " fill="#115C97" transform="translate(19.97265625,44.15234375)"/>
<path d="M0 0 C2.53260968 1.42152931 4.68494509 2.8542478 6.4375 5.1875 C6.8359375 8.03515625 6.8359375 8.03515625 6.8125 11.25 C6.82410156 12.84521484 6.82410156 12.84521484 6.8359375 14.47265625 C6.70445313 15.36855469 6.57296875 16.26445313 6.4375 17.1875 C2.44215844 19.85106104 -0.86224082 19.91258535 -5.5625 19.1875 C-7.9375 17.25 -7.9375 17.25 -9.5625 15.1875 C-10.5525 14.8575 -11.5425 14.5275 -12.5625 14.1875 C-13.201875 13.3625 -13.84125 12.5375 -14.5 11.6875 C-19.08161932 7.94740259 -23.80660502 8.28848061 -29.5625 8.1875 C-29.5625 7.1975 -29.5625 6.2075 -29.5625 5.1875 C-27.48046875 3.6171875 -27.48046875 3.6171875 -24.75 2.0625 C-23.85667969 1.54429688 -22.96335937 1.02609375 -22.04296875 0.4921875 C-15.37742063 -3.01378584 -6.82158624 -3.32203642 0 0 Z " fill="#125E98" transform="translate(92.5625,38.8125)"/>
<path d="M0 0 C5.92883813 -0.89491896 8.78225111 0.128847 13.6875 3.625 C18.55785472 7.44157478 22.99454977 10.98364932 25 17 C25.11766176 18.66368258 25.17509083 20.33220803 25.1875 22 C25.20167969 22.86625 25.21585938 23.7325 25.23046875 24.625 C25 27 25 27 23 30 C20.3984375 30.29296875 20.3984375 30.29296875 17.375 30.1875 C15.87066406 30.14689453 15.87066406 30.14689453 14.3359375 30.10546875 C13.56507812 30.07066406 12.79421875 30.03585938 12 30 C12 29.34 12 28.68 12 28 C10.68 27.67 9.36 27.34 8 27 C7.94392578 25.58847656 7.94392578 25.58847656 7.88671875 24.1484375 C7.82097656 22.90320313 7.75523438 21.65796875 7.6875 20.375 C7.60048828 18.53035156 7.60048828 18.53035156 7.51171875 16.6484375 C6.97209713 12.80105894 6.03328667 10.29382782 4 7 C3.01 6.34 2.02 5.68 1 5 C0.3125 2.375 0.3125 2.375 0 0 Z " fill="#155F99" transform="translate(65,53)"/>
<path d="M0 0 C2.31 0 4.62 0 7 0 C7 0.66 7 1.32 7 2 C7.763125 1.9175 8.52625 1.835 9.3125 1.75 C12 2 12 2 13.8125 3.5 C15.53328032 7.12269541 15.19948095 10.01038102 15 14 C16.32 14 17.64 14 19 14 C19 13.01 19 12.02 19 11 C22.92472355 7.34594704 27.3805141 7.49504613 32.46875 7.65234375 C35 8 35 8 37.5625 9.625 C40.71221321 14.82887399 41.82277633 19.99015554 41 26 C39.5 29.5 39.5 29.5 38 32 C38.67546875 32.24234375 39.3509375 32.4846875 40.046875 32.734375 C49.74969425 36.37994293 49.74969425 36.37994293 52 40 C52.71422225 43.00188149 53.17882683 45.91225669 53 49 C52.34 49.66 51.68 50.32 51 51 C50.94392578 49.96939453 50.94392578 49.96939453 50.88671875 48.91796875 C50.82097656 48.01691406 50.75523438 47.11585937 50.6875 46.1875 C50.62949219 45.29417969 50.57148437 44.40085938 50.51171875 43.48046875 C49.92377975 40.63053542 49.2618387 39.76638832 47 38 C40.91164811 34.50243615 34.93048321 34.02375173 28 35 C24.44129902 36.34172645 21.28277189 38.10010356 18 40 C16.515 40.495 16.515 40.495 15 41 C15 41.99 15 42.98 15 44 C15.81984375 43.95359375 16.6396875 43.9071875 17.484375 43.859375 C19.10085937 43.80523437 19.10085937 43.80523437 20.75 43.75 C21.81734375 43.70359375 22.8846875 43.6571875 23.984375 43.609375 C27 44 27 44 31 48 C24.73 47.34 18.46 46.68 12 46 C12 44.35 12 42.7 12 41 C10.35 41 8.7 41 7 41 C6.9189794 38.89646505 6.86080093 36.79204048 6.8125 34.6875 C6.77769531 33.51574219 6.74289063 32.34398437 6.70703125 31.13671875 C7 28 7 28 8.51171875 26.08203125 C9.24841797 25.54642578 9.24841797 25.54642578 10 25 C9.33333333 29 8.66666667 33 8 37 C9.46080933 36.38080922 10.91857455 35.75443308 12.375 35.125 C13.18710937 34.77695312 13.99921875 34.42890625 14.8359375 34.0703125 C17.13802299 33.07553933 17.13802299 33.07553933 19 31 C21.74485593 30.85492305 24.38480543 30.81347577 27.125 30.875 C27.87910156 30.88402344 28.63320312 30.89304687 29.41015625 30.90234375 C31.27357254 30.9259313 33.13682593 30.96180281 35 31 C36.81726575 27.88981791 37.24829794 25.64957821 37.1875 22.0625 C37.17783203 20.81146484 37.17783203 20.81146484 37.16796875 19.53515625 C36.99659917 16.94867125 36.56512565 14.52724189 36 12 C27.94537892 12.14548577 23.22771798 12.83231912 17 18 C16.01 18 15.02 18 14 18 C14 14.37 14 10.74 14 7 C12.68 6.34 11.36 5.68 10 5 C9.38125 4.649375 8.7625 4.29875 8.125 3.9375 C5.45925448 2.7614358 2.87568173 2.39213842 0 2 C0 1.34 0 0.68 0 0 Z " fill="#C5D6E4" transform="translate(48,3)"/>
<path d="M0 0 C4.10593254 0.39480121 5.57841892 1.16946344 8.25 4.3125 C8.88666067 8.25979618 9.1675088 10.65889099 7.22265625 14.1640625 C5.9375 15.8125 5.9375 15.8125 3.25 18.3125 C2.26 18.3125 1.27 18.3125 0.25 18.3125 C-1.49685308 22.13995451 -2.09886333 25.43692723 -2.375 29.625 C-2.44976562 30.69363281 -2.52453125 31.76226562 -2.6015625 32.86328125 C-2.65054688 33.67152344 -2.69953125 34.47976562 -2.75 35.3125 C-7.42317998 33.46519595 -8.71003657 30.56708216 -10.765625 26.1640625 C-13.18510722 19.15524497 -12.30385351 11.92415942 -9.74609375 5.05859375 C-8.75 3.3125 -8.75 3.3125 -6.125 1.8125 C-5.34125 1.6475 -4.5575 1.4825 -3.75 1.3125 C-2.75 0.3125 -2.75 0.3125 0 0 Z " fill="#1665A0" transform="translate(51.75,6.6875)"/>
<path d="M0 0 C2.09375 0.96875 2.09375 0.96875 4 3 C5.03310579 6.68654111 5.29624366 10.51061706 5.68945312 14.30859375 C6.40242947 19.82167197 7.57392625 22.30464597 12 26 C13.3125 28.3125 13.3125 28.3125 14 30 C5.81534529 30.68205456 0.66365647 27.58203959 -5.5 22.375 C-7.53125 20.5859375 -7.53125 20.5859375 -9 19 C-9 18.34 -9 17.68 -9 17 C-9.66 17 -10.32 17 -11 17 C-11.13489391 14.73078464 -11.23193995 12.4592933 -11.3125 10.1875 C-11.37050781 8.92292969 -11.42851562 7.65835937 -11.48828125 6.35546875 C-11 3 -11 3 -8.671875 1.07421875 C-5.49241302 -0.20407371 -3.39868606 -0.43387482 0 0 Z " fill="#15639E" transform="translate(29,19)"/>
<path d="M0 0 C1.65089018 3.60726003 2.23056049 6.35398152 2.125 10.3125 C2.10695313 11.19550781 2.08890625 12.07851563 2.0703125 12.98828125 C2.04710938 13.65214844 2.02390625 14.31601562 2 15 C-2.48975325 16.49658442 -7.04317051 16.39065522 -11.75 16.62109375 C-15.14313578 16.76709073 -15.14313578 16.76709073 -18 19 C-18.99 19 -19.98 19 -21 19 C-21 19.66 -21 20.32 -21 21 C-22.32 21 -23.64 21 -25 21 C-25.1953125 14.9453125 -25.1953125 14.9453125 -25 13 C-24.34 12.34 -23.68 11.68 -23 11 C-22.88269531 10.37609375 -22.76539063 9.7521875 -22.64453125 9.109375 C-21.46648219 5.25394171 -18.20172308 3.59901682 -14.98828125 1.41796875 C-10.0534812 -0.92364225 -5.33248713 -0.57722799 0 0 Z " fill="#16609A" transform="translate(84,15)"/>
<path d="M0 0 C0.31563182 5.26053037 -0.33409063 8.44573816 -3 13 C-3.99 13 -4.98 13 -6 13 C-6 14.32 -6 15.64 -6 17 C-6.66 17 -7.32 17 -8 17 C-8.268125 17.61875 -8.53625 18.2375 -8.8125 18.875 C-10 21 -10 21 -13 23 C-16.28515625 23.265625 -16.28515625 23.265625 -20.0625 23.25 C-21.31160156 23.25515625 -22.56070312 23.2603125 -23.84765625 23.265625 C-27 23 -27 23 -29 21 C-29.265625 18.6875 -29.265625 18.6875 -29.25 16 C-29.25515625 15.113125 -29.2603125 14.22625 -29.265625 13.3125 C-29 11 -29 11 -27 9 C-24.10032243 8.69324768 -21.28216822 8.48826629 -18.375 8.375 C-17.17230469 8.31699219 -17.17230469 8.31699219 -15.9453125 8.2578125 C-13.96392444 8.16346069 -11.98199355 8.08063785 -10 8 C-10 7.01 -10 6.02 -10 5 C-8.52227402 4.1641146 -7.04277811 3.33135744 -5.5625 2.5 C-4.73878906 2.0359375 -3.91507813 1.571875 -3.06640625 1.09375 C-1 0 -1 0 0 0 Z " fill="#0F5C97" transform="translate(51,63)"/>
<path d="M0 0 C0.99 0 1.98 0 3 0 C5.70172645 5.39636175 6.40128581 9.44601563 6.1875 15.4375 C6.16719727 16.53481445 6.16719727 16.53481445 6.14648438 17.65429688 C6.11153874 19.43652422 6.05774805 21.21836573 6 23 C5.01 23 4.02 23 3 23 C2.938125 23.598125 2.87625 24.19625 2.8125 24.8125 C2 27 2 27 -0.125 28.75 C-3.59278683 30.2577334 -6.25670998 30.22019353 -10 30 C-12.15305957 26.14243493 -13.39253254 23.44870215 -13 19 C-12.34 19 -11.68 19 -11 19 C-11 17.68 -11 16.36 -11 15 C-9.35546875 13.359375 -9.35546875 13.359375 -7.1875 11.75 C-2.85412192 8.21427028 -1.49779344 5.33588913 0 0 Z " fill="#145E98" transform="translate(61,66)"/>
<path d="M0 0 C2.75 1.375 2.75 1.375 5 3 C5.99 3.66 6.98 4.32 8 5 C8.29296875 7.6015625 8.29296875 7.6015625 8.1875 10.625 C8.16042969 11.62789062 8.13335937 12.63078125 8.10546875 13.6640625 C8.07066406 14.43492188 8.03585938 15.20578125 8 16 C8.66 16.33 9.32 16.66 10 17 C9.34 17 8.68 17 8 17 C7.855625 17.804375 7.71125 18.60875 7.5625 19.4375 C7 22 7 22 6 23 C5.76924918 24.34747084 5.58846937 25.70377565 5.4375 27.0625 C5.293125 28.361875 5.14875 29.66125 5 31 C6.32 31 7.64 31 9 31 C9 30.34 9 29.68 9 29 C13.92318581 26.10355157 17.81723899 25.48837851 23.375 25.3125 C24.11105469 25.27833984 24.84710938 25.24417969 25.60546875 25.20898438 C27.40313853 25.12727211 29.20154046 25.06194219 31 25 C30.49609375 26.96484375 30.49609375 26.96484375 29 29 C26.24799578 29.38629874 23.81705379 29.56007735 21.0625 29.5625 C15.80908375 29.33501332 15.80908375 29.33501332 11.2578125 31.453125 C10.84273437 31.96359375 10.42765625 32.4740625 10 33 C7.36559819 33.94193717 4.7470152 34.41457053 2 35 C1.72963916 29.72796354 2.73694665 25.07476794 4 20 C2.35 20.66 0.7 21.32 -1 22 C-1.66 27.28 -2.32 32.56 -3 38 C-8 38 -8 38 -10.125 36.4375 C-14.65771509 30.54497039 -15.50376313 25.16018124 -15.4375 17.9375 C-15.4674707 16.77250977 -15.4674707 16.77250977 -15.49804688 15.58398438 C-15.49272685 9.30103637 -13.6031238 5.69288669 -9.1875 1.125 C-5.96860302 -0.53043273 -3.56753756 -0.37553027 0 0 Z M-7 4 C-7.99773438 4.18949219 -7.99773438 4.18949219 -9.015625 4.3828125 C-11.13178602 4.80402803 -11.13178602 4.80402803 -12.046875 6.6796875 C-14.70778467 14.98763879 -15.52221275 22.48251343 -11.75 30.5625 C-9.96790463 34.00018398 -8.62517826 35.56697013 -5 37 C-4.95101562 36.19175781 -4.90203125 35.38351563 -4.8515625 34.55078125 C-4.77679688 33.48214844 -4.70203125 32.41351563 -4.625 31.3125 C-4.52058594 29.72888672 -4.52058594 29.72888672 -4.4140625 28.11328125 C-4.0090242 25.06785176 -3.38128815 22.73755296 -2 20 C-0.67203709 19.64587656 0.66216607 19.31478446 2 19 C5.03726303 16.21584223 6.29761592 13.99401043 6.5625 9.9375 C6.35199801 5.9637451 6.35199801 5.9637451 3.875 3.5 C-0.21636276 1.36537595 -3.56305357 0.56305357 -7 4 Z " fill="#96B7D1" transform="translate(54,5)"/>
<path d="M0 0 C-0.875 4.875 -0.875 4.875 -2 6 C-2.23481693 8.18292774 -2.41363323 10.37203174 -2.5625 12.5625 C-2.64628906 13.76003906 -2.73007812 14.95757812 -2.81640625 16.19140625 C-2.87699219 17.11824219 -2.93757813 18.04507813 -3 19 C-1.35 19 0.3 19 2 19 C2 20.65 2 22.3 2 24 C2.85722656 23.97679688 3.71445312 23.95359375 4.59765625 23.9296875 C10.80373869 23.83173355 16.1571222 23.82590593 22 26 C22 27.32 22 28.64 22 30 C21.51015625 29.68289062 21.0203125 29.36578125 20.515625 29.0390625 C16.998323 27.58626385 13.50334607 27.53415248 9.75 27.375 C9.00492188 27.33632813 8.25984375 27.29765625 7.4921875 27.2578125 C5.6618476 27.16394892 3.83095857 27.08090282 2 27 C2.33 28.65 2.66 30.3 3 32 C-1.05607995 32.98329211 -4.83062202 33.23600253 -9 33 C-11 31 -11 31 -11.1953125 28.3984375 C-11.17210937 27.40070312 -11.14890625 26.40296875 -11.125 25.375 C-11.10695312 24.37210938 -11.08890625 23.36921875 -11.0703125 22.3359375 C-11.04710937 21.56507812 -11.02390625 20.79421875 -11 20 C-9.35 20 -7.7 20 -6 20 C-6.01160156 19.20335938 -6.02320313 18.40671875 -6.03515625 17.5859375 C-6.13450795 5.91920928 -6.13450795 5.91920928 -5 2 C-2 0 -2 0 0 0 Z " fill="#FAFBFC" transform="translate(58,25)"/>
<path d="M0 0 C1.32 0 2.64 0 4 0 C5.07548346 7.86980754 3.11276288 12.42918765 -1.2734375 18.9453125 C-1.84320313 19.62335938 -2.41296875 20.30140625 -3 21 C-3.66 21 -4.32 21 -5 21 C-5.185625 21.5775 -5.37125 22.155 -5.5625 22.75 C-7.66274863 26.03734568 -10.43810455 27.63379353 -14 29 C-18.39388765 29.84660648 -21.46098092 29.29401041 -25.4375 27.125 C-28.0288871 24.97604484 -28.83353872 24.23181347 -29.2734375 20.9765625 C-29.37763355 18.56402312 -29.38988873 16.3859495 -29 14 C-26.625 11.4375 -26.625 11.4375 -24 10 C-23.34 10 -22.68 10 -22 10 C-22 9.01 -22 8.02 -22 7 C-16.39 7 -10.78 7 -5 7 C-5.99 7.33 -6.98 7.66 -8 8 C-8 8.99 -8 9.98 -8 11 C-11.53030873 12.76515437 -15.7716168 12.41070388 -19.67773438 12.60546875 C-23.13254014 12.50193434 -23.13254014 12.50193434 -26 14 C-26.09823937 15.66429051 -26.12973631 17.33281931 -26.125 19 C-26.12757812 19.9075 -26.13015625 20.815 -26.1328125 21.75 C-26.25173779 23.96966611 -26.25173779 23.96966611 -25 25 C-16.76128483 25.97604136 -16.76128483 25.97604136 -9.03125 23.8828125 C-7.58449922 22.38431651 -7.58449922 22.38431651 -6 20 C-5.34 20 -4.68 20 -4 20 C-4 18.68 -4 17.36 -4 16 C-3.01 16 -2.02 16 -1 16 C-0.855625 15.195625 -0.71125 14.39125 -0.5625 13.5625 C0 11 0 11 1 10 C1.04080783 8.00041636 1.04254356 5.99954746 1 4 C-0.98 4.99 -0.98 4.99 -3 6 C-3 5.34 -3 4.68 -3 4 C-2.34 4 -1.68 4 -1 4 C-0.67 2.68 -0.34 1.36 0 0 Z " fill="#6797BC" transform="translate(49,60)"/>
<path d="M0 0 C2.24940295 -0.08119503 4.49964871 -0.13927819 6.75 -0.1875 C8.00296875 -0.22230469 9.2559375 -0.25710937 10.546875 -0.29296875 C14.14109357 0.01197061 15.44725126 0.54394629 18 3 C18 2.34 18 1.68 18 1 C21.69798658 1.63758389 21.69798658 1.63758389 23.25 3.5 C26.11402515 5.9548787 29.30324285 5.69698712 33 6 C33 6.33 33 6.66 33 7 C29.7 7 26.4 7 23 7 C23 7.66 23 8.32 23 9 C23.99 9.33 24.98 9.66 26 10 C29.5273565 15.39131078 30.73859879 20.66915325 30 27 C28.6875 29.9375 28.6875 29.9375 27 32 C23.30624122 33.23125293 19.84512599 33.46420032 16 33 C13.5 31.5 13.5 31.5 12 30 C12.33 29.34 12.66 28.68 13 28 C13.66 28.33 14.32 28.66 15 29 C15 29.66 15 30.32 15 31 C16.81325551 30.88648483 18.62563357 30.75887039 20.4375 30.625 C21.44683594 30.55539063 22.45617187 30.48578125 23.49609375 30.4140625 C24.32238281 30.27742188 25.14867188 30.14078125 26 30 C27.86428659 26.27142681 27.41670049 22.06895768 27 18 C24.0033472 10.31293411 17.67511572 6.45007715 11 2 C8.9507906 1.54860541 8.9507906 1.54860541 6.8125 1.375 C4.9253125 1.189375 4.9253125 1.189375 3 1 C3.66 2.98 4.32 4.96 5 7 C4.01 6.67 3.02 6.34 2 6 C2 5.34 2 4.68 2 4 C1.01 3.67 0.02 3.34 -1 3 C-0.67 2.01 -0.34 1.02 0 0 Z " fill="#7EA6C5" transform="translate(62,52)"/>
<path d="M0 0 C0.94230469 -0.03738281 1.88460938 -0.07476563 2.85546875 -0.11328125 C6.91266439 0.47091205 8.84870064 1.45734431 11.8125 4.3125 C12.69723021 8.24161688 12.3161542 12.22986501 12.13476562 16.2265625 C12.06050066 21.11720195 12.06050066 21.11720195 14.40673828 25.25097656 C16.14708053 26.74219812 17.88732754 28.07175729 19.8125 29.3125 C19.4825 30.3025 19.1525 31.2925 18.8125 32.3125 C16.1725 32.3125 13.5325 32.3125 10.8125 32.3125 C10.8125 31.9825 10.8125 31.6525 10.8125 31.3125 C13.1225 31.3125 15.4325 31.3125 17.8125 31.3125 C17.049375 30.57 16.28625 29.8275 15.5 29.0625 C14.613125 28.155 13.72625 27.2475 12.8125 26.3125 C12.03326172 25.51972656 12.03326172 25.51972656 11.23828125 24.7109375 C8.71269678 20.46242006 8.60944514 15.53006724 7.99609375 10.69140625 C7.88394531 9.90378906 7.77179687 9.11617187 7.65625 8.3046875 C7.56537109 7.58651855 7.47449219 6.86834961 7.38085938 6.12841797 C6.89687321 3.91492107 6.89687321 3.91492107 3.8125 2.3125 C1.55032178 2.24894557 1.55032178 2.24894557 -0.8125 2.625 C-1.60914063 2.72425781 -2.40578125 2.82351562 -3.2265625 2.92578125 C-5.18319846 3.12255493 -5.18319846 3.12255493 -6.1875 4.3125 C-6.42277773 6.66237262 -6.60136417 9.01806039 -6.75 11.375 C-6.83378906 12.66535156 -6.91757812 13.95570312 -7.00390625 15.28515625 C-7.06449219 16.28417969 -7.12507813 17.28320312 -7.1875 18.3125 C-6.5275 18.3125 -5.8675 18.3125 -5.1875 18.3125 C-5.1875 18.9725 -5.1875 19.6325 -5.1875 20.3125 C-6.1775 19.9825 -7.1675 19.6525 -8.1875 19.3125 C-9.7298845 15.21442025 -9.64059522 10.62074435 -9.1875 6.3125 C-6.69695658 1.11484416 -5.64285083 0.14468848 0 0 Z " fill="#97B9D2" transform="translate(25.1875,17.6875)"/>
<path d="M0 0 C3.3 0 6.6 0 10 0 C9.34 0.7425 8.68 1.485 8 2.25 C5.60788553 4.97242945 5.60788553 4.97242945 6 9 C6.99 9.33 7.98 9.66 9 10 C9 13.96 9 17.92 9 22 C8.01 22.33 7.02 22.66 6 23 C6 23.99 6 24.98 6 26 C4.68 26 3.36 26 2 26 C2 26.66 2 27.32 2 28 C-7.41002278 28.3690205 -7.41002278 28.3690205 -12 26 C-12 24.68 -12 23.36 -12 22 C-12.99 22 -13.98 22 -15 22 C-15.33 22.66 -15.66 23.32 -16 24 C-16 21.36 -16 18.72 -16 16 C-15.67 17.32 -15.34 18.64 -15 20 C-14.4225 20.0825 -13.845 20.165 -13.25 20.25 C-11 21 -11 21 -9.25 23.0625 C-6.7319365 25.23083246 -6.12155943 25.2892162 -2.9375 25.3125 C0.90086312 25.16647907 0.90086312 25.16647907 4 24 C6.24714408 21.04323147 6.41040492 17.88211797 6.328125 14.234375 C5.73446511 10.19183386 4.09391249 6.4924015 2 3 C1.34 2.67 0.68 2.34 0 2 C0 1.34 0 0.68 0 0 Z " fill="#DAE5ED" transform="translate(85,59)"/>
<path d="M0 0 C0.99 0.33 1.98 0.66 3 1 C2.979375 2.216875 2.95875 3.43375 2.9375 4.6875 C2.93175884 7.91977322 3.21233685 10.84934741 4 14 C3.67 13.01 3.34 12.02 3 11 C2.26394531 11.02320313 1.52789062 11.04640625 0.76953125 11.0703125 C-0.20628906 11.08835937 -1.18210937 11.10640625 -2.1875 11.125 C-3.15042969 11.14820313 -4.11335938 11.17140625 -5.10546875 11.1953125 C-9.27387844 10.91404329 -12.03688631 9.96311369 -15 7 C-15.125 4.375 -15.125 4.375 -15 2 C-14.34 2 -13.68 2 -13 2 C-13 2.66 -13 3.32 -13 4 C-8.38 4 -3.76 4 1 4 C0.67 2.68 0.34 1.36 0 0 Z " fill="#CCDBE6" transform="translate(43,45)"/>
<path d="M0 0 C2.31 0 4.62 0 7 0 C7 0.66 7 1.32 7 2 C7.763125 1.9175 8.52625 1.835 9.3125 1.75 C12 2 12 2 13.8125 3.5 C15.53328032 7.12269541 15.19948095 10.01038102 15 14 C16.32 14 17.64 14 19 14 C19 13.01 19 12.02 19 11 C23.06849728 7.21208874 27.54514209 7.74960104 32.76953125 7.89453125 C33.87361328 7.94673828 33.87361328 7.94673828 35 8 C35.495 9.485 35.495 9.485 36 11 C32.04 11 28.08 11 24 11 C23.67 11.99 23.34 12.98 23 14 C17.74285714 18 17.74285714 18 14 18 C14 14.37 14 10.74 14 7 C12.68 6.34 11.36 5.68 10 5 C9.38125 4.649375 8.7625 4.29875 8.125 3.9375 C5.45925448 2.7614358 2.87568173 2.39213842 0 2 C0 1.34 0 0.68 0 0 Z " fill="#C8D9E6" transform="translate(48,3)"/>
<path d="M0 0 C-0.33 0.66 -0.66 1.32 -1 2 C-1.99 1.67 -2.98 1.34 -4 1 C-4 5.29 -4 9.58 -4 14 C-4.99 14.33 -5.98 14.66 -7 15 C-8.01187895 16.65948148 -9.0126546 18.32580562 -10 20 C-10.66 20 -11.32 20 -12 20 C-11.125 13.25 -11.125 13.25 -10 11 C-9.77377919 9.29636178 -9.59111527 7.58671299 -9.4375 5.875 C-9.31181641 4.50988281 -9.31181641 4.50988281 -9.18359375 3.1171875 C-9.12300781 2.41851562 -9.06242187 1.71984375 -9 1 C-9.99 0.67 -10.98 0.34 -12 0 C-3.42857143 -1.28571429 -3.42857143 -1.28571429 0 0 Z " fill="#E7EEF3" transform="translate(62,59)"/>
<path d="M0 0 C0 0.99 0 1.98 0 3 C-0.33 3.33 -0.66 3.66 -1 4 C-1.23075082 5.34747084 -1.41153063 6.70377565 -1.5625 8.0625 C-1.7790625 10.0115625 -1.7790625 10.0115625 -2 12 C-0.68 12 0.64 12 2 12 C2 11.34 2 10.68 2 10 C6.92318581 7.10355157 10.81723899 6.48837851 16.375 6.3125 C17.11105469 6.27833984 17.84710938 6.24417969 18.60546875 6.20898438 C20.40313853 6.12727211 22.20154046 6.06194219 24 6 C23.49609375 7.96484375 23.49609375 7.96484375 22 10 C19.24799578 10.38629874 16.81705379 10.56007735 14.0625 10.5625 C8.80908375 10.33501332 8.80908375 10.33501332 4.2578125 12.453125 C3.84273437 12.96359375 3.42765625 13.4740625 3 14 C0.36559819 14.94193717 -2.2529848 15.41457053 -5 16 C-5.39106321 10.78582389 -4.27894574 6.64152252 -2 2 C-1.34 1.34 -0.68 0.68 0 0 Z " fill="#568CB6" transform="translate(61,24)"/>
<path d="M0 0 C0.33 1.32 0.66 2.64 1 4 C1.99 3.67 2.98 3.34 4 3 C3.67 3.99 3.34 4.98 3 6 C2.34 6 1.68 6 1 6 C1 7.32 1 8.64 1 10 C0.34 10 -0.32 10 -1 10 C-0.01 13.96 0.98 17.92 2 22 C0.68 21.67 -0.64 21.34 -2 21 C-2 20.34 -2 19.68 -2 19 C-2.66 19 -3.32 19 -4 19 C-4.33 16.03 -4.66 13.06 -5 10 C-5.99 10.99 -6.98 11.98 -8 13 C-10.1875 12.6875 -10.1875 12.6875 -12 12 C-11.030625 11.38125 -10.06125 10.7625 -9.0625 10.125 C-5.97164638 8.34321154 -5.97164638 8.34321154 -5 6 C-4.34 6 -3.68 6 -3 6 C-2.690625 5.38125 -2.38125 4.7625 -2.0625 4.125 C-1.375 2.75 -0.6875 1.375 0 0 Z " fill="#A5C1D7" transform="translate(49,75)"/>
<path d="M0 0 C2.4375 2.5625 2.4375 2.5625 4 5 C3.01 4.67 2.02 4.34 1 4 C-1.03992808 3.90601957 -3.08291414 3.87007931 -5.125 3.875 C-6.73761719 3.87113281 -6.73761719 3.87113281 -8.3828125 3.8671875 C-10.92656396 3.70311025 -10.92656396 3.70311025 -12 5 C-12.07179964 6.51928038 -12.08392007 8.04167482 -12.0625 9.5625 C-12.05347656 10.38878906 -12.04445313 11.21507812 -12.03515625 12.06640625 C-12.02355469 12.70449219 -12.01195312 13.34257813 -12 14 C-3.76869651 19.82011358 3.51336589 19.80084585 13.25 18.5 C14.61125 18.2525 14.61125 18.2525 16 18 C15.67 18.66 15.34 19.32 15 20 C7.68399276 22.07309163 -1.84358534 22.53385421 -8.75 19.125 C-12 17 -12 17 -14 15 C-14.55955859 11.28924305 -14.55442169 7.71078282 -14 4 C-9.61523631 -0.84631777 -6.26544642 -1.51234914 0 0 Z " fill="#7DA5C4" transform="translate(22,45)"/>
<path d="M0 0 C2.87305972 1.40460697 4.74510999 2.74510999 7 5 C7.26991906 7.68839385 7.08737357 10.29141936 7 13 C6.67 13 6.34 13 6 13 C5.9175 11.906875 5.835 10.81375 5.75 9.6875 C5.32656162 6.05330115 5.32656162 6.05330115 3.3125 4.0625 C0.34831544 2.70057736 -1.77345463 2.64928855 -5 3 C-5.66 3.66 -6.32 4.32 -7 5 C-8.32 5 -9.64 5 -11 5 C-13.0518498 12.82267735 -14.78840948 20.92242639 -11.4375 28.5625 C-10.963125 29.366875 -10.48875 30.17125 -10 31 C-10.33 31.66 -10.66 32.32 -11 33 C-15.04646298 27.99009346 -15.62579016 24.35240286 -15.5 18 C-15.51546875 17.21882813 -15.5309375 16.43765625 -15.546875 15.6328125 C-15.50451863 9.34289168 -13.60715748 5.69705946 -9.1875 1.125 C-5.96860302 -0.53043273 -3.56753756 -0.37553027 0 0 Z " fill="#8DB1CD" transform="translate(54,5)"/>
<path d="M0 0 C5 1 5 1 7 3 C10.53007672 10.07634645 10.32290808 17.2621657 10 25 C9.67 25 9.34 25 9 25 C8.95101562 24.18015625 8.90203125 23.3603125 8.8515625 22.515625 C8.73941406 20.89914063 8.73941406 20.89914063 8.625 19.25 C8.55539063 18.18265625 8.48578125 17.1153125 8.4140625 16.015625 C8.02175562 13.15844658 7.33587101 11.49797019 6 9 C6 8.01 6 7.02 6 6 C5.01 6 4.02 6 3 6 C2.81824219 6.61488281 2.63648438 7.22976562 2.44921875 7.86328125 C2.19785156 8.67152344 1.94648437 9.47976562 1.6875 10.3125 C1.44386719 11.11300781 1.20023438 11.91351563 0.94921875 12.73828125 C-0.04182023 15.09964573 -1.08074943 16.33879993 -3 18 C-3.66 17.67 -4.32 17.34 -5 17 C-4.34 15.68 -3.68 14.36 -3 13 C-2.01 13 -1.02 13 0 13 C0 8.71 0 4.42 0 0 Z " fill="#4D86B1" transform="translate(58,60)"/>
<path d="M0 0 C4.10593254 0.39480121 5.57841892 1.16946344 8.25 4.3125 C8.80613536 7.21357722 8.58955349 9.30502622 8.25 12.3125 C7.59 12.9725 6.93 13.6325 6.25 14.3125 C6.270625 13.219375 6.29125 12.12625 6.3125 11 C6.43544452 7.36865809 6.43544452 7.36865809 5.25 4.3125 C4.26 3.9825 3.27 3.6525 2.25 3.3125 C2.25 2.6525 2.25 1.9925 2.25 1.3125 C0.93 1.3125 -0.39 1.3125 -1.75 1.3125 C-1.75 1.9725 -1.75 2.6325 -1.75 3.3125 C-2.53375 3.89 -3.3175 4.4675 -4.125 5.0625 C-7.163175 7.66665 -7.73669344 9.5126004 -8.75 13.3125 C-9.08 13.6425 -9.41 13.9725 -9.75 14.3125 C-9.98192865 15.82719448 -10.16215238 17.35004562 -10.3125 18.875 C-10.39628906 19.70128906 -10.48007812 20.52757813 -10.56640625 21.37890625 C-10.62699219 22.01699219 -10.68757813 22.65507812 -10.75 23.3125 C-11.08 23.3125 -11.41 23.3125 -11.75 23.3125 C-12.09989472 16.379401 -12.29067126 9.51908844 -8.75 3.3125 C-6.125 1.8125 -6.125 1.8125 -3.75 1.3125 C-2.75 0.3125 -2.75 0.3125 0 0 Z " fill="#3076AB" transform="translate(51.75,6.6875)"/>
<path d="M0 0 C0.72703125 0.58007812 0.72703125 0.58007812 1.46875 1.171875 C6.11212416 4.77941954 10.66713323 7.52402614 16 10 C16 10.33 16 10.66 16 11 C14.02 11 12.04 11 10 11 C10 10.34 10 9.68 10 9 C9.34 9 8.68 9 8 9 C7.67 10.32 7.34 11.64 7 13 C6.59910156 12.55527344 6.19820312 12.11054687 5.78515625 11.65234375 C2.24964664 8.06896359 2.24964664 8.06896359 -2.46875 6.82421875 C-4.69376642 7.09530461 -6.82600639 7.45773402 -9 8 C-8.67 7.01 -8.34 6.02 -8 5 C-4.7 5 -1.4 5 2 5 C1.34 3.35 0.68 1.7 0 0 Z " fill="#ACC4D6" transform="translate(20,38)"/>
<path d="M0 0 C0.66 0 1.32 0 2 0 C2 0.66 2 1.32 2 2 C2.66 2 3.32 2 4 2 C4 2.99 4 3.98 4 5 C3.34 5 2.68 5 2 5 C1.67 5.99 1.34 6.98 1 8 C-3.29 8 -7.58 8 -12 8 C-12 7.34 -12 6.68 -12 6 C-8.35206816 4.72746564 -4.8063457 3.67170806 -1 3 C-0.67 2.01 -0.34 1.02 0 0 Z " fill="#DAE5EE" transform="translate(44,59)"/>
<path d="M0 0 C0.99 0.33 1.98 0.66 3 1 C3.06058594 2.04800781 3.12117188 3.09601562 3.18359375 4.17578125 C3.26801738 5.55470048 3.35266447 6.93360605 3.4375 8.3125 C3.47681641 9.00279297 3.51613281 9.69308594 3.55664062 10.40429688 C3.74329544 16.02853376 3.74329544 16.02853376 6.62890625 20.60546875 C7.26699219 21.12753906 7.90507813 21.64960937 8.5625 22.1875 C9.20316406 22.71730469 9.84382813 23.24710938 10.50390625 23.79296875 C10.99761719 24.19128906 11.49132813 24.58960937 12 25 C11.67 25.99 11.34 26.98 11 28 C8.36 28 5.72 28 3 28 C3 27.67 3 27.34 3 27 C5.31 27 7.62 27 10 27 C9.236875 26.2575 8.47375 25.515 7.6875 24.75 C3.18016523 20.13784349 1.62078628 17.52155771 0.8125 11 C0.65394531 9.783125 0.49539062 8.56625 0.33203125 7.3125 C0 4 0 4 0 0 Z " fill="#729FC1" transform="translate(33,22)"/>
<path d="M0 0 C0.33 0 0.66 0 1 0 C1.02578125 0.60328125 1.0515625 1.2065625 1.078125 1.828125 C1.4034799 7.04453897 1.4034799 7.04453897 3.9375 11.5 C7.23509541 13.89825121 9.08528591 14.11429121 13.125 14.0625 C14.03507812 14.05347656 14.94515625 14.04445313 15.8828125 14.03515625 C16.58148438 14.02355469 17.28015625 14.01195313 18 14 C17.01 15.485 17.01 15.485 16 17 C13.3984375 17.29296875 13.3984375 17.29296875 10.375 17.1875 C8.87066406 17.14689453 8.87066406 17.14689453 7.3359375 17.10546875 C6.56507812 17.07066406 5.79421875 17.03585938 5 17 C5 16.01 5 15.02 5 14 C3.68 14 2.36 14 1 14 C0.67 12.02 0.34 10.04 0 8 C-0.66 8 -1.32 8 -2 8 C-2.20086443 4.28400809 -2.1519437 3.22791555 0 0 Z " fill="#D0DFEA" transform="translate(19,74)"/>
<path d="M0 0 C4.62 0 9.24 0 14 0 C16.68407013 5.36814025 17.40013509 8.99797364 17 15 C16.67 15.99 16.34 16.98 16 18 C14.68 17.67 13.36 17.34 12 17 C12.33 16.67 12.66 16.34 13 16 C13.09952878 14.41924873 13.12968602 12.83387455 13.125 11.25 C13.12757812 10.38890625 13.13015625 9.5278125 13.1328125 8.640625 C13.04373133 5.58333943 13.04373133 5.58333943 12 1 C8.04 1 4.08 1 0 1 C0 0.67 0 0.34 0 0 Z " fill="#9EBCD3" transform="translate(72,14)"/>
<path d="M0 0 C0.66386719 0.63421875 1.32773437 1.2684375 2.01171875 1.921875 C5.55905138 4.38877821 8.62451654 4.86526659 12.8125 5.25 C13.50537109 5.32734375 14.19824219 5.4046875 14.91210938 5.484375 C16.60647581 5.67133957 18.3030858 5.83777927 20 6 C20 9 20 9 18.8125 10.625 C16.58593199 12.31412056 14.74148672 12.62952882 12 13 C12.33 12.34 12.66 11.68 13 11 C13.66 11 14.32 11 15 11 C15 10.01 15 9.02 15 8 C11.37 7.67 7.74 7.34 4 7 C3.67 6.01 3.34 5.02 3 4 C2.01 4 1.02 4 0 4 C0 2.68 0 1.36 0 0 Z " fill="#6A99BD" transform="translate(26,50)"/>
<path d="M0 0 C0.9075 0.495 1.815 0.99 2.75 1.5 C2.75 1.83 2.75 2.16 2.75 2.5 C-4 2.625 -4 2.625 -6.25 1.5 C-9.29173894 1.33329727 -9.29173894 1.33329727 -12.25 1.5 C-12.58 1.83 -12.91 2.16 -13.25 2.5 C-14.76928038 2.57179964 -16.29167482 2.58392007 -17.8125 2.5625 C-18.63878906 2.55347656 -19.46507813 2.54445313 -20.31640625 2.53515625 C-20.95449219 2.52355469 -21.59257813 2.51195312 -22.25 2.5 C-16.93986167 -3.31586579 -6.93051469 -3.01079736 0 0 Z " fill="#427EAC" transform="translate(92.25,38.5)"/>
<path d="M0 0 C2.24940295 -0.08119503 4.49964871 -0.13927819 6.75 -0.1875 C8.00296875 -0.22230469 9.2559375 -0.25710937 10.546875 -0.29296875 C14.14109357 0.01197061 15.44725126 0.54394629 18 3 C18 2.34 18 1.68 18 1 C18.66 1 19.32 1 20 1 C21.625 3.5 21.625 3.5 23 6 C19.91980287 5.53330347 17.54788858 4.7952703 14.6875 3.5 C10.6071784 1.84020816 7.36022425 1.38247581 3 1 C3.66 2.98 4.32 4.96 5 7 C4.01 6.67 3.02 6.34 2 6 C2 5.34 2 4.68 2 4 C1.01 3.67 0.02 3.34 -1 3 C-0.67 2.01 -0.34 1.02 0 0 Z " fill="#BDD2E2" transform="translate(62,52)"/>
<path d="M0 0 C7.44283101 -0.8119452 11.18448392 1.47682083 17 6 C16.01 6.33 15.02 6.66 14 7 C13.34 6.67 12.68 6.34 12 6 C12 5.34 12 4.68 12 4 C10.02 4.33 8.04 4.66 6 5 C5.67 5.99 5.34 6.98 5 8 C2.21611025 6.29374499 1.14615794 5.52373261 0.25 2.3125 C0.1675 1.549375 0.085 0.78625 0 0 Z " fill="#3A79A9" transform="translate(65,53)"/>
<path d="M0 0 C0.66 0 1.32 0 2 0 C2 0.66 2 1.32 2 2 C3.2684375 1.9071875 3.2684375 1.9071875 4.5625 1.8125 C8.73619843 2.04015628 11.25432947 3.20207814 15 5 C14.67 5.99 14.34 6.98 14 8 C8.58609132 7.53328373 4.79482068 6.75702189 0 4 C0 2.68 0 1.36 0 0 Z " fill="#DFE9F0" transform="translate(28,47)"/>
<path d="M0 0 C0.66 0.33 1.32 0.66 2 1 C-3.75 5 -3.75 5 -6 5 C-6 5.99 -6 6.98 -6 8 C-5.18015625 7.95359375 -4.3603125 7.9071875 -3.515625 7.859375 C-2.43796875 7.82328125 -1.3603125 7.7871875 -0.25 7.75 C1.35101563 7.68039063 1.35101563 7.68039063 2.984375 7.609375 C6 8 6 8 10 12 C4.06 11.34 -1.88 10.68 -8 10 C-8 8.35 -8 6.7 -8 5 C-5.39110249 2.46161323 -3.45779049 1.15259683 0 0 Z " fill="#ADC6D9" transform="translate(69,39)"/>
<path d="M0 0 C0.33 0.99 0.66 1.98 1 3 C-2.3 2.34 -5.6 1.68 -9 1 C-9.33 1.99 -9.66 2.98 -10 4 C-11.65 4.33 -13.3 4.66 -15 5 C-15.33 5.99 -15.66 6.98 -16 8 C-17.98 8.33 -19.96 8.66 -22 9 C-22 8.34 -22 7.68 -22 7 C-15.23363767 0.38333595 -9.2262259 -0.99871518 0 0 Z " fill="#4A84B1" transform="translate(84,15)"/>
<path d="M0 0 C6.70518586 -0.19818283 12.65176798 -0.30844801 19 2 C19 3.32 19 4.64 19 6 C18.48953125 5.68289062 17.9790625 5.36578125 17.453125 5.0390625 C14.19785341 3.66023727 11.27156868 3.5706427 7.75 3.375 C5.85507813 3.26285156 5.85507813 3.26285156 3.921875 3.1484375 C2.95765625 3.09945312 1.9934375 3.05046875 1 3 C0.67 2.01 0.34 1.02 0 0 Z " fill="#E2EBF1" transform="translate(61,49)"/>
<path d="M0 0 C2.875 -0.125 2.875 -0.125 6 0 C6.66 0.66 7.32 1.32 8 2 C12.33643601 2.31537716 14.32653229 2.44897847 18 0 C20.33199388 -0.07905064 22.66832622 -0.08798769 25 0 C22.5532889 2.96180818 20.74307882 3.43350858 17 4 C15.00303327 4.13808812 13.00150092 4.21936478 11 4.25 C9.989375 4.27578125 8.97875 4.3015625 7.9375 4.328125 C4.58428662 3.95356393 2.70885299 2.97188563 0 1 C0 0.67 0 0.34 0 0 Z " fill="#3C78A8" transform="translate(14,61)"/>
<path d="M0 0 C0.33 1.32 0.66 2.64 1 4 C1.5775 4.0825 2.155 4.165 2.75 4.25 C5 5 5 5 6.625 7.0625 C10.35800538 10.1078465 14.36087278 9.31871866 19 9 C18.67 9.99 18.34 10.98 18 12 C8.58997722 12.3690205 8.58997722 12.3690205 4 10 C4 8.68 4 7.36 4 6 C3.01 6 2.02 6 1 6 C0.67 6.66 0.34 7.32 0 8 C0 5.36 0 2.72 0 0 Z " fill="#C0D3E2" transform="translate(69,75)"/>
<path d="M0 0 C1.32 0 2.64 0 4 0 C4 6.27 4 12.54 4 19 C3.34 19 2.68 19 2 19 C1.93941406 18.04738281 1.87882812 17.09476563 1.81640625 16.11328125 C1.73261719 14.85902344 1.64882812 13.60476562 1.5625 12.3125 C1.48128906 11.07113281 1.40007812 9.82976562 1.31640625 8.55078125 C1.05508683 5.61819663 0.65201621 2.86558383 0 0 Z " fill="#407DAC" transform="translate(71,61)"/>
<path d="M0 0 C-0.33 0.66 -0.66 1.32 -1 2 C-1.99 1.67 -2.98 1.34 -4 1 C-4 5.29 -4 9.58 -4 14 C-4.33 14 -4.66 14 -5 14 C-5.33 10.7 -5.66 7.4 -6 4 C-6.99 5.32 -7.98 6.64 -9 8 C-9 5.69 -9 3.38 -9 1 C-9.99 0.67 -10.98 0.34 -12 0 C-3.42857143 -1.28571429 -3.42857143 -1.28571429 0 0 Z " fill="#CAD9E5" transform="translate(62,59)"/>
<path d="M0 0 C0 0.33 0 0.66 0 1 C-2.64 1.66 -5.28 2.32 -8 3 C-8.66 6.63 -9.32 10.26 -10 14 C-9.34 14 -8.68 14 -8 14 C-7.67 15.98 -7.34 17.96 -7 20 C-7.66 19.67 -8.32 19.34 -9 19 C-9 18.34 -9 17.68 -9 17 C-9.66 17 -10.32 17 -11 17 C-11.13489391 14.73078464 -11.23193995 12.4592933 -11.3125 10.1875 C-11.37050781 8.92292969 -11.42851562 7.65835937 -11.48828125 6.35546875 C-11 3 -11 3 -8.6875 1.0625 C-5.61197994 -0.15340328 -3.27895374 -0.22876421 0 0 Z " fill="#4683B1" transform="translate(29,19)"/>
<path d="M0 0 C0.33 0.99 0.66 1.98 1 3 C-0.14339844 3.04898437 -1.28679687 3.09796875 -2.46484375 3.1484375 C-3.95575473 3.22345189 -5.44663892 3.29900028 -6.9375 3.375 C-8.06961914 3.42140625 -8.06961914 3.42140625 -9.22460938 3.46875 C-11.15507395 3.5726315 -13.07942081 3.77895614 -15 4 C-15.33 4.66 -15.66 5.32 -16 6 C-16 5.01 -16 4.02 -16 3 C-11.48267456 -1.20578575 -5.75838972 -0.27228813 0 0 Z " fill="#DFE8EF" transform="translate(83,11)"/>
<path d="M0 0 C1.65 0.33 3.3 0.66 5 1 C6.3125 3.0625 6.3125 3.0625 7 5 C5.02 4.34 3.04 3.68 1 3 C1.04640625 3.74765625 1.0928125 4.4953125 1.140625 5.265625 C1.43910806 13.40994854 1.43910806 13.40994854 -1 16.6875 C-1.66 17.120625 -2.32 17.55375 -3 18 C-3.66 17.67 -4.32 17.34 -5 17 C-4.34 15.68 -3.68 14.36 -3 13 C-2.01 13 -1.02 13 0 13 C0 8.71 0 4.42 0 0 Z " fill="#7FA7C6" transform="translate(58,60)"/>
<path d="M0 0 C0.66 0 1.32 0 2 0 C3.26237731 2.52475462 3.09856404 4.31200466 3.0625 7.125 C3.05347656 8.03507812 3.04445313 8.94515625 3.03515625 9.8828125 C3.02355469 10.58148438 3.01195313 11.28015625 3 12 C2.01 12 1.02 12 0 12 C-0.33 13.32 -0.66 14.64 -1 16 C-2.32 15.67 -3.64 15.34 -5 15 C-4.35546875 14.76023437 -3.7109375 14.52046875 -3.046875 14.2734375 C-0.81680913 13.19866122 -0.81680913 13.19866122 -0.390625 10.9765625 C-0.32101563 9.81253906 -0.32101563 9.81253906 -0.25 8.625 C-0.19328125 7.85414062 -0.1365625 7.08328125 -0.078125 6.2890625 C-0.00661319 4.19376657 0 2.09651591 0 0 Z " fill="#D2DFE8" transform="translate(100,43)"/>
<path d="M0 0 C1.97265625 1.12109375 1.97265625 1.12109375 4 3 C4.49609375 5.84765625 4.49609375 5.84765625 4.4375 9.0625 C4.43621094 10.12597656 4.43492188 11.18945312 4.43359375 12.28515625 C4.21896484 13.62900391 4.21896484 13.62900391 4 15 C0.79619983 17.13586678 -0.01939967 17.23132175 -3.6875 17.125 C-4.89986328 17.09792969 -4.89986328 17.09792969 -6.13671875 17.0703125 C-6.75160156 17.04710938 -7.36648437 17.02390625 -8 17 C-8 16.67 -8 16.34 -8 16 C-5.36 16 -2.72 16 0 16 C0.2165625 15.0409375 0.2165625 15.0409375 0.4375 14.0625 C1 12 1 12 2 11 C2.04080783 9.00041636 2.04254356 6.99954746 2 5 C1.34 4.67 0.68 4.34 0 4 C0 2.68 0 1.36 0 0 Z " fill="#5087B1" transform="translate(95,41)"/>
<path d="M0 0 C0.99 0 1.98 0 3 0 C2.35330586 1.34313399 1.68096422 2.67391178 1 4 C0.690625 4.9075 0.38125 5.815 0.0625 6.75 C-2 9 -2 9 -4.640625 9.31640625 C-7.44322879 9.31281317 -10.20601158 9.21346261 -13 9 C-13 8.34 -13 7.68 -13 7 C-11.96939453 6.87044922 -11.96939453 6.87044922 -10.91796875 6.73828125 C-5.15883183 6.06394432 -5.15883183 6.06394432 -1.0625 2.375 C-0.711875 1.59125 -0.36125 0.8075 0 0 Z " fill="#78A3C3" transform="translate(64,89)"/>
<path d="M0 0 C0.66 0.639375 1.32 1.27875 2 1.9375 C5.85690912 4.58912502 8.37840033 4.68667121 13 5 C13 5.33 13 5.66 13 6 C9.7 6 6.4 6 3 6 C3 6.66 3 7.32 3 8 C3.99 8.33 4.98 8.66 6 9 C5.67 9.66 5.34 10.32 5 11 C2.03 8.69 -0.94 6.38 -4 4 C-2 4 0 4 2 4 C1.34 2.68 0.68 1.36 0 0 Z " fill="#94B5CF" transform="translate(82,53)"/>
<path d="M0 0 C2.4375 2.5625 2.4375 2.5625 4 5 C3.01 4.67 2.02 4.34 1 4 C-0.89212737 3.77820215 -2.78884472 3.59385985 -4.6875 3.4375 C-5.68136719 3.35371094 -6.67523438 3.26992188 -7.69921875 3.18359375 C-8.83810547 3.09271484 -8.83810547 3.09271484 -10 3 C-9.67 2.01 -9.34 1.02 -9 0 C-5.77839187 -1.61080407 -3.42436421 -0.82657067 0 0 Z " fill="#4A83AF" transform="translate(22,45)"/>
<path d="M0 0 C0 0.99 0 1.98 0 3 C-0.33 3.33 -0.66 3.66 -1 4 C-1.23075082 5.34747084 -1.41153063 6.70377565 -1.5625 8.0625 C-1.7790625 10.0115625 -1.7790625 10.0115625 -2 12 C-0.68 12.33 0.64 12.66 2 13 C-2.75 16 -2.75 16 -5 16 C-5.39106321 10.78582389 -4.27894574 6.64152252 -2 2 C-1.34 1.34 -0.68 0.68 0 0 Z " fill="#5289B4" transform="translate(61,24)"/>
<path d="M0 0 C5.61 0 11.22 0 17 0 C12.64699809 2.90200128 10.11529021 3.22902699 4.875 3.5625 C3.59367187 3.64628906 2.31234375 3.73007813 0.9921875 3.81640625 C0.00476563 3.87699219 -0.98265625 3.93757813 -2 4 C-1.34 3.67 -0.68 3.34 0 3 C0 2.01 0 1.02 0 0 Z " fill="#97B7D0" transform="translate(27,67)"/>
<path d="M0 0 C0.99 0.33 1.98 0.66 3 1 C2.50886719 1.68449219 2.01773437 2.36898438 1.51171875 3.07421875 C-0.30470752 6.58973109 -0.30658238 8.88278142 -0.1875 12.8125 C-0.16042969 13.97394531 -0.13335938 15.13539062 -0.10546875 16.33203125 C-0.05326172 17.65267578 -0.05326172 17.65267578 0 19 C-2.8381946 15.81641663 -3.40993914 13.73928226 -3.375 9.5 C-3.38273438 8.5615625 -3.39046875 7.623125 -3.3984375 6.65625 C-2.94552484 3.63683226 -2.00855276 2.25297982 0 0 Z " fill="#DDE7EF" transform="translate(17,18)"/>
<path d="M0 0 C0.99 0 1.98 0 3 0 C4.16343227 2.32686453 4.19895988 3.84721413 4.25 6.4375 C4.27578125 7.21996094 4.3015625 8.00242187 4.328125 8.80859375 C3.92823089 11.47931509 3.05300878 12.31977439 1 14 C1.01160156 13.24074219 1.02320312 12.48148438 1.03515625 11.69921875 C1.04417969 10.70535156 1.05320312 9.71148437 1.0625 8.6875 C1.07990234 7.20830078 1.07990234 7.20830078 1.09765625 5.69921875 C1.12329862 2.90036151 1.12329862 2.90036151 0 0 Z M-1 14 C-0.34 14 0.32 14 1 14 C1 15.32 1 16.64 1 18 C0.01 17.67 -0.98 17.34 -2 17 C-1.67 16.01 -1.34 15.02 -1 14 Z " fill="#E5EDF2" transform="translate(87,18)"/>
<path d="M0 0 C0.66 0.33 1.32 0.66 2 1 C1.34 1.66 0.68 2.32 0 3 C3.3 3.66 6.6 4.32 10 5 C10.33 5.99 10.66 6.98 11 8 C10.01 7.67 9.02 7.34 8 7 C5.94106379 6.77674186 3.87766347 6.59294241 1.8125 6.4375 C0.72582031 6.35371094 -0.36085938 6.26992188 -1.48046875 6.18359375 C-2.31191406 6.12300781 -3.14335938 6.06242187 -4 6 C-4 5.01 -4 4.02 -4 3 C-2 1.3125 -2 1.3125 0 0 Z " fill="#588DB5" transform="translate(67,41)"/>
<path d="M0 0 C0.36923077 6.52307692 0.36923077 6.52307692 -1.5 8.9375 C-1.995 9.288125 -2.49 9.63875 -3 10 C-3.33 8.68 -3.66 7.36 -4 6 C-5.98 6 -7.96 6 -10 6 C-2.28571429 0 -2.28571429 0 0 0 Z " fill="#3877A8" transform="translate(51,63)"/>
<path d="M0 0 C0.66 0.33 1.32 0.66 2 1 C2 5.29 2 9.58 2 14 C1.01 14 0.02 14 -1 14 C-0.67 9.38 -0.34 4.76 0 0 Z " fill="#96B7D1" transform="translate(71,65)"/>
<path d="M0 0 C1.9375 0.8125 1.9375 0.8125 4 2 C4.33 2.99 4.66 3.98 5 5 C0.45194365 5.17835515 -2.8794254 4.99785435 -7 3 C-7 2.67 -7 2.34 -7 2 C-4.69 2 -2.38 2 0 2 C0 1.34 0 0.68 0 0 Z " fill="#3C7AAA" transform="translate(38,44)"/>
<path d="M0 0 C2.5625 1.5 2.5625 1.5 4 4 C4.31058001 6.75837161 4.18622842 9.20657373 4 12 C3.67 12 3.34 12 3 12 C2.9175 10.906875 2.835 9.81375 2.75 8.6875 C2.32656162 5.05330115 2.32656162 5.05330115 0.3125 3.0625 C-2.65168456 1.70057736 -4.77345463 1.64928855 -8 2 C-8.66 2.66 -9.32 3.32 -10 4 C-10.99 3.67 -11.98 3.34 -13 3 C-9.3026645 -0.85808922 -5.00615412 -0.79914754 0 0 Z " fill="#689ABF" transform="translate(57,6)"/>
<path d="M0 0 C-3.53520253 3.35755416 -6.35285823 3.40488815 -11.125 3.375 C-12.36507813 3.38273437 -13.60515625 3.39046875 -14.8828125 3.3984375 C-15.91148438 3.26695313 -16.94015625 3.13546875 -18 3 C-18.66 2.01 -19.32 1.02 -20 0 C-19.01 0 -18.02 0 -17 0 C-17 0.66 -17 1.32 -17 2 C-13.37 2 -9.74 2 -6 2 C-6 1.34 -6 0.68 -6 0 C-3.50907189 -1.24546405 -2.58919267 -0.7767578 0 0 Z " fill="#2E70A4" transform="translate(42,83)"/>
<path d="M0 0 C0.515625 0.268125 1.03125 0.53625 1.5625 0.8125 C4.66401415 2.32349407 7.82262806 3.65572726 11 5 C11 5.33 11 5.66 11 6 C9.02 6 7.04 6 5 6 C5 5.34 5 4.68 5 4 C4.34 4 3.68 4 3 4 C2.67 5.32 2.34 6.64 2 8 C0 6 0 6 -0.125 2.875 C-0.08375 1.92625 -0.0425 0.9775 0 0 Z " fill="#9FBED5" transform="translate(25,43)"/>
<path d="M0 0 C1.45606519 4.52092968 0.27032841 7.51648796 -1 12 C0.65 11.34 2.3 10.68 4 10 C3.34 11.32 2.68 12.64 2 14 C0.68 14 -0.64 14 -2 14 C-2.05410687 12.22950311 -2.09284119 10.45853151 -2.125 8.6875 C-2.14820313 7.70136719 -2.17140625 6.71523438 -2.1953125 5.69921875 C-2 3 -2 3 0 0 Z " fill="#96B7D1" transform="translate(57,28)"/>
<path d="M0 0 C0.33 0 0.66 0 1 0 C1.05399736 1.45792884 1.09279177 2.91642712 1.125 4.375 C1.14820313 5.18710938 1.17140625 5.99921875 1.1953125 6.8359375 C1 9 1 9 -1 11 C-1.46006346 13.20250992 -1.46006346 13.20250992 -1.625 15.625 C-1.69976562 16.44226563 -1.77453125 17.25953125 -1.8515625 18.1015625 C-1.92503906 19.04128906 -1.92503906 19.04128906 -2 20 C-2.33 20 -2.66 20 -3 20 C-3.3689719 12.68889006 -2.81552726 6.78743178 0 0 Z " fill="#3C7EAF" transform="translate(43,10)"/>
<path d="M0 0 C-0.875 4.875 -0.875 4.875 -2 6 C-2.23363881 7.84891946 -2.41303635 9.70488031 -2.5625 11.5625 C-2.64628906 12.57441406 -2.73007812 13.58632813 -2.81640625 14.62890625 C-2.87699219 15.41136719 -2.93757813 16.19382812 -3 17 C-3.33 17 -3.66 17 -4 17 C-4.33 12.05 -4.66 7.1 -5 2 C-2 0 -2 0 0 0 Z " fill="#D7E4ED" transform="translate(58,25)"/>
<path d="M0 0 C2.1640625 -0.29296875 2.1640625 -0.29296875 4.625 -0.1875 C5.44226563 -0.16042969 6.25953125 -0.13335937 7.1015625 -0.10546875 C8.04128906 -0.05326172 8.04128906 -0.05326172 9 0 C9 0.99 9 1.98 9 3 C5.37 3 1.74 3 -2 3 C-1.34 2.01 -0.68 1.02 0 0 Z " fill="#DBE5EC" transform="translate(22,15)"/>
<path d="M0 0 C6.43311296 -0.09507063 12.65758005 -0.15316726 19 1 C19 1.33 19 1.66 19 2 C17.56260487 2.02712066 16.12506137 2.04645067 14.6875 2.0625 C13.48673828 2.07990234 13.48673828 2.07990234 12.26171875 2.09765625 C10 2 10 2 7 1 C7 1.99 7 2.98 7 4 C6.34 4 5.68 4 5 4 C5 3.34 5 2.68 5 2 C3.35 1.67 1.7 1.34 0 1 C0 0.67 0 0.34 0 0 Z " fill="#BDCFDC" transform="translate(20,66)"/>
<path d="M0 0 C0.33 0.66 0.66 1.32 1 2 C-0.12019531 2.03738281 -1.24039063 2.07476562 -2.39453125 2.11328125 C-3.8672209 2.17894257 -5.33987566 2.24538986 -6.8125 2.3125 C-7.55048828 2.33505859 -8.28847656 2.35761719 -9.04882812 2.38085938 C-13.33107039 2.55557955 -13.33107039 2.55557955 -17.01171875 4.54296875 C-17.50091797 5.26419922 -17.50091797 5.26419922 -18 6 C-18.66 5.67 -19.32 5.34 -20 5 C-19.67 4.01 -19.34 3.02 -19 2 C-15.28720531 0.76240177 -11.68693654 0.64391103 -7.8125 0.4375 C-7.06291016 0.39431641 -6.31332031 0.35113281 -5.54101562 0.30664062 C-3.69421625 0.20077315 -1.84713166 0.0999024 0 0 Z " fill="#8DB0CC" transform="translate(82,32)"/>
<path d="M0 0 C1.95387664 3.90775329 2.34762234 5.99687587 2.625 10.25 C2.69976562 11.32765625 2.77453125 12.4053125 2.8515625 13.515625 C2.92503906 14.74539062 2.92503906 14.74539062 3 16 C2.01 15.67 1.02 15.34 0 15 C0 10.05 0 5.1 0 0 Z " fill="#2B70A4" transform="translate(32,22)"/>
<path d="M0 0 C3.3 0 6.6 0 10 0 C10 0.33 10 0.66 10 1 C7.69 1 5.38 1 3 1 C3.66 2.98 4.32 4.96 5 7 C4.01 6.67 3.02 6.34 2 6 C2 5.34 2 4.68 2 4 C1.01 3.67 0.02 3.34 -1 3 C-0.67 2.01 -0.34 1.02 0 0 Z " fill="#A6C3D8" transform="translate(62,52)"/>
<path d="M0 0 C7.50769231 -0.36923077 7.50769231 -0.36923077 10 1.5 C10.495 2.2425 10.495 2.2425 11 3 C8.36 2.67 5.72 2.34 3 2 C3.33 3.32 3.66 4.64 4 6 C3.01 5.67 2.02 5.34 1 5 C0.67 3.35 0.34 1.7 0 0 Z " fill="#6295BB" transform="translate(65,53)"/>
<path d="M0 0 C1.32 0 2.64 0 4 0 C4 3.3 4 6.6 4 10 C3.67 10 3.34 10 3 10 C3 7.69 3 5.38 3 3 C1.02 3.99 -0.96 4.98 -3 6 C-3 5.34 -3 4.68 -3 4 C-2.34 4 -1.68 4 -1 4 C-0.67 2.68 -0.34 1.36 0 0 Z " fill="#96B6CF" transform="translate(49,60)"/>
<path d="M0 0 C2.99324263 1.0975223 3.84610901 1.67682892 5.25 4.625 C5.4975 5.40875 5.745 6.1925 6 7 C1.125 6.125 1.125 6.125 0 5 C-0.04063832 3.33382885 -0.042721 1.66611905 0 0 Z " fill="#E8EFF5" transform="translate(40,38)"/>
<path d="M0 0 C0.8353125 0.30744141 0.8353125 0.30744141 1.6875 0.62109375 C6.83617554 2.43878495 11.56276016 3.50570547 17 4 C17 4.33 17 4.66 17 5 C6.01505646 5.38393977 6.01505646 5.38393977 2 3 C1.34 2.01 0.68 1.02 0 0 Z " fill="#A5C2D7" transform="translate(28,51)"/>
<path d="M0 0 C2.08412907 0.06023494 4.16744435 0.14908321 6.25 0.25 C7.41015625 0.29640625 8.5703125 0.3428125 9.765625 0.390625 C13.46661382 1.08791275 14.67122429 2.11785184 17 5 C16.05125 4.690625 15.1025 4.38125 14.125 4.0625 C9.49061575 2.72071729 4.79447959 2.36657993 0 2 C0 1.34 0 0.68 0 0 Z " fill="#A0BDD2" transform="translate(62,46)"/>
<path d="M0 0 C0.33 0 0.66 0 1 0 C1 3.96 1 7.92 1 12 C0.67 12 0.34 12 0 12 C0 8.04 0 4.08 0 0 Z M-5 12 C-3.35 12 -1.7 12 0 12 C-1.32 13.32 -2.64 14.64 -4 16 C-4.33 14.68 -4.66 13.36 -5 12 Z " fill="#EBF1F6" transform="translate(52,33)"/>
<path d="M0 0 C0.33 0 0.66 0 1 0 C1 3.96 1 7.92 1 12 C-3 10 -3 10 -3.75 7.875 C-3.8325 7.25625 -3.915 6.6375 -4 6 C-3.34 6 -2.68 6 -2 6 C-2 6.99 -2 7.98 -2 9 C-1.34 9 -0.68 9 0 9 C0 6.03 0 3.06 0 0 Z " fill="#4D85B1" transform="translate(48,30)"/>
<path d="M0 0 C0.33 0 0.66 0 1 0 C1 5.28 1 10.56 1 16 C0.01 16 -0.98 16 -2 16 C-1.34 10.72 -0.68 5.44 0 0 Z " fill="#2A6DA2" transform="translate(66,73)"/>
<path d="M0 0 C1.32 0 2.64 0 4 0 C4 2.97 4 5.94 4 9 C3.34 8.67 2.68 8.34 2 8 C2 6.35 2 4.7 2 3 C1.34 3 0.68 3 0 3 C0 2.01 0 1.02 0 0 Z " fill="#EDF3F7" transform="translate(66,62)"/>
<path d="M0 0 C3.63 0.33 7.26 0.66 11 1 C11 1.66 11 2.32 11 3 C9.54257537 3.08096803 8.08387193 3.13917774 6.625 3.1875 C5.81289062 3.22230469 5.00078125 3.25710937 4.1640625 3.29296875 C3.44992188 3.19628906 2.73578125 3.09960938 2 3 C1.34 2.01 0.68 1.02 0 0 Z " fill="#2C6FA3" transform="translate(84,54)"/>
<path d="M0 0 C0.33 1.32 0.66 2.64 1 4 C1.99 3.67 2.98 3.34 4 3 C3.67 3.99 3.34 4.98 3 6 C2.01 6 1.02 6 0 6 C-0.33 6.66 -0.66 7.32 -1 8 C-1.66 6.68 -2.32 5.36 -3 4 C-2.01 2.68 -1.02 1.36 0 0 Z " fill="#A2BED3" transform="translate(49,75)"/>
<path d="M0 0 C0.33 0 0.66 0 1 0 C1.33 2.31 1.66 4.62 2 7 C0.02 7.99 0.02 7.99 -2 9 C-1.125 2.25 -1.125 2.25 0 0 Z " fill="#D1DFE9" transform="translate(52,70)"/>
<path d="M0 0 C-0.375 1.9375 -0.375 1.9375 -1 4 C-1.99 4.495 -1.99 4.495 -3 5 C-3 4.34 -3 3.68 -3 3 C-4.65 3.66 -6.3 4.32 -8 5 C-3.375 0 -3.375 0 0 0 Z " fill="#B1C9DC" transform="translate(61,22)"/>
<path d="M0 0 C0.99 0.33 1.98 0.66 3 1 C2.39816251 3.02045442 1.72693904 5.02111039 1 7 C0.01 7.495 0.01 7.495 -1 8 C-1.125 2.25 -1.125 2.25 0 0 Z " fill="#E4EBF0" transform="translate(70,81)"/>
<path d="M0 0 C2.875 -0.1875 2.875 -0.1875 6 0 C6.66 0.99 7.32 1.98 8 3 C5.125 3.1875 5.125 3.1875 2 3 C1.34 2.01 0.68 1.02 0 0 Z " fill="#296DA1" transform="translate(14,61)"/>
<path d="M0 0 C5.875 4.625 5.875 4.625 7 8 C4 8 4 8 1.8125 6.25 C0 4 0 4 0 0 Z " fill="#E0EAF0" transform="translate(7,58)"/>
<path d="M0 0 C1.7074998 1.28062485 3.37373596 2.61767557 5 4 C5 4.66 5 5.32 5 6 C5.99 6.33 6.98 6.66 8 7 C6.35 6.67 4.7 6.34 3 6 C3 5.34 3 4.68 3 4 C2.01 4 1.02 4 0 4 C0 2.68 0 1.36 0 0 Z " fill="#3E7CAB" transform="translate(26,50)"/>
</svg>
